<?xml version="1.0" encoding="UTF-8"?> <svg xmlns="http://www.w3.org/2000/svg" width="484" height="484" viewBox="0 0 484 484" fill="none"> <g clip-path="url(#clip0)"> <path d="M478.71 348.403L433.656 332.004C429.505 330.502 424.924 332.648 423.422 336.799L420.687 344.303L368.492 325.27C367.181 324.778 365.761 324.657 364.384 324.911L255.789 344.088C245.945 345.84 237.49 352.091 232.917 360.979L183.102 342.808C175.147 339.882 166.344 340.272 158.677 343.889C148.934 348.435 142.126 357.557 140.538 368.189C138.548 383.578 147.662 398.245 162.345 403.274L326.435 462.999C327.309 463.323 328.238 463.491 329.17 463.487C330.04 463.487 330.903 463.343 331.726 463.066L377.552 447.595L382.43 449.366L379.695 456.877C378.192 461.029 380.338 465.613 384.49 467.116L429.552 483.511C430.422 483.835 431.347 484.003 432.275 483.999C435.635 484.003 438.639 481.9 439.786 478.743L483.514 358.591C484.985 354.451 482.839 349.902 478.71 348.403V348.403ZM375.09 431.578L329.264 447.049L167.807 388.276C160.339 385.79 155.575 378.471 156.332 370.632C157.007 365.856 159.801 361.642 163.937 359.157C168.073 356.675 173.106 356.195 177.636 357.85L229.483 376.715C229.51 378.19 229.627 379.661 229.842 381.116C232.975 398.448 249.488 410.021 266.847 407.047L356.81 391.187L354.029 375.443L264.108 391.308C255.45 392.779 247.209 387.035 245.594 378.4C245.262 376.578 245.274 374.705 245.633 372.887C245.691 372.622 245.738 372.357 245.769 372.087C245.875 371.405 246.058 370.737 246.319 370.097C248.282 364.732 252.948 360.819 258.571 359.812L365.039 341.037L415.224 359.293L387.892 434.407L380.381 431.683C378.68 431.051 376.815 431.012 375.09 431.578ZM427.464 465.789L397.428 454.856L435.685 349.73L465.725 360.659L427.464 465.789Z" fill="url(#paint0_linear)"></path> <path d="M187.683 128.9C190.262 138.342 195.018 147.051 201.57 154.32C201.449 154.96 201.363 155.604 201.324 156.255V199.772C201.324 213.011 212.054 223.745 225.296 223.745V303.654C225.277 306.697 226.994 309.487 229.713 310.845L245.695 318.835C247.946 319.959 250.592 319.959 252.839 318.835L268.821 310.845C271.544 309.487 273.257 306.697 273.242 303.654V223.745C286.48 223.745 297.214 213.011 297.214 199.772V156.255C297.171 155.557 297.082 154.862 296.949 154.176C302.287 148.303 306.446 141.46 309.201 134.015C321 135.997 332.81 130.578 339.006 120.343C346.603 107.775 344.524 91.6259 333.989 81.3954L268.957 16.3797C258.493 5.86045 244.251 -0.0390698 229.409 -5.18239e-05H145.388C144.303 -0.00395362 143.234 0.218449 142.239 0.647647L87.8516 23.9726H81.4605V7.99083C81.4605 3.5779 77.8825 -5.18239e-05 73.4696 -5.18239e-05H9.54252C5.12958 -5.18239e-05 1.55164 3.5779 1.55164 7.99083V135.845C1.55164 140.258 5.12958 143.836 9.54252 143.836H73.4696C77.8825 143.836 81.4605 140.258 81.4605 135.845V119.863H82.6271C88.3471 139.041 114.044 151.827 137.397 151.827C156.769 152.225 175.275 143.789 187.683 128.9V128.9ZM65.4787 127.854H17.5334V15.9817H65.4787V127.854ZM257.26 298.714L249.269 302.709L241.278 298.714V223.745H257.26V298.714ZM281.233 199.772C281.233 204.185 277.655 207.763 273.242 207.763H225.296C220.883 207.763 217.305 204.185 217.305 199.772V167.153C222.678 170.282 228.488 172.6 234.54 174.024C237.302 180.747 244.228 184.781 251.435 183.868C258.645 182.959 264.349 177.329 265.352 170.13C266.355 162.935 262.406 155.959 255.723 153.11C249.035 150.266 241.27 152.252 236.779 157.964C232.273 156.782 227.961 154.944 223.993 152.506C231.695 147.835 240.318 144.878 249.269 143.836C260.74 145.447 271.681 149.7 281.233 156.255V199.772ZM287.183 141.222C275.758 133.875 262.777 129.298 249.269 127.854C235.784 129.29 222.823 133.859 211.414 141.19C206.54 134.987 203.314 127.651 202.034 119.863H241.278C252.984 119.98 263.768 113.527 269.195 103.156L291.572 125.529C292.466 126.364 293.41 127.14 294.401 127.854C292.755 132.681 290.316 137.199 287.183 141.222ZM272.863 84.2164C272.118 77.677 269.348 71.5316 264.946 66.6349C283.02 72.9129 295.634 89.3316 297.039 108.411L272.863 84.2164ZM177.351 111.872C177.351 123.972 157.557 135.845 137.397 135.845C117.236 135.845 97.4422 123.972 97.4422 111.872C97.4422 107.459 93.8643 103.881 89.4513 103.881H81.4605V39.9544H89.4513C90.5321 39.9583 91.6051 39.7359 92.6001 39.3067L146.983 15.9817H229.37C239.983 15.9427 250.174 20.1566 257.658 27.6793L322.674 92.695C327.929 97.6034 329.112 105.485 325.526 111.72C322.857 115.946 318.19 118.482 313.196 118.423C313.067 118.423 312.946 118.423 312.818 118.423C313.06 116.25 313.184 114.061 313.196 111.872C313.157 76.5844 284.557 47.9843 249.269 47.9452C238.531 47.9609 227.973 50.7116 218.589 55.9361H153.378V71.9179H241.278C250.104 71.9179 257.26 79.0738 257.26 87.8997C257.26 96.7255 250.104 103.881 241.278 103.881H185.342C180.929 103.881 177.351 107.459 177.351 111.872V111.872Z" fill="url(#paint1_linear)"></path> </g> <defs> <linearGradient id="paint0_linear" x1="483.977" y1="324.782" x2="175.455" y2="535.516" gradientUnits="userSpaceOnUse"> <stop stop-color="#18C800"></stop> <stop offset="1" stop-color="#90EC00"></stop> </linearGradient> <linearGradient id="paint1_linear" x1="343.556" y1="-0.000244141" x2="-60.3762" y2="136.733" gradientUnits="userSpaceOnUse"> <stop stop-color="#18C800"></stop> <stop offset="1" stop-color="#90EC00"></stop> </linearGradient> <clipPath id="clip0"> <rect width="484" height="484" fill="white"></rect> </clipPath> </defs> </svg> 