<?xml version="1.0" encoding="UTF-8"?> <svg xmlns="http://www.w3.org/2000/svg" width="512" height="512" viewBox="0 0 512 512" fill="none"> <path d="M477.266 193.617H453.863C449.676 193.617 446.293 197.008 446.293 201.188C446.293 205.363 449.676 208.758 453.863 208.758H477.266C487.973 208.758 496.684 217.465 496.684 228.172V405.008C496.684 415.156 488.738 424.426 476.691 424.426C463.117 424.426 259.422 424.426 247.648 424.426C236.941 424.426 228.234 415.715 228.234 405.008V245.945H265.18C284.23 245.945 299.734 230.441 299.734 211.391V208.758H423.59C427.766 208.758 431.156 205.363 431.156 201.188C431.156 197.008 427.766 193.617 423.59 193.617H299.734V34.5547C299.734 15.5 284.23 0 265.18 0H79.1484C74.9609 0 71.582 3.39062 71.582 7.57031C71.582 11.7461 74.9609 15.1367 79.1484 15.1367H265.18C275.875 15.1367 284.594 23.8477 284.594 34.5547V211.391C284.594 222.098 275.875 230.805 265.18 230.805C258.859 230.805 41.6406 230.805 35.5547 230.805C24.8477 230.805 16.1367 222.098 16.1367 211.391V34.5547C16.1367 23.8477 24.8477 15.1367 35.5547 15.1367H48.875C53.0547 15.1367 56.4453 11.7461 56.4453 7.57031C56.4453 3.39062 53.0547 0 48.875 0H35.5547C16.5 0 1 15.5 1 34.5547V211.391C1 230.441 16.5 245.945 35.5547 245.945H36.1289V301.691C36.1289 318.262 57.7734 324.664 66.7891 310.793L109.062 245.945H213.098V405.008C213.098 424.062 228.598 439.562 247.648 439.562H403.758L446.031 504.41C449.191 509.254 454.418 512 459.938 512C469.133 512 476.691 504.691 476.691 495.309V439.562H477.266C496.32 439.562 511.82 424.062 511.82 405.008V228.172C511.82 209.121 496.32 193.617 477.266 193.617V193.617ZM54.1016 302.527C53.2461 303.836 51.2656 303.254 51.2656 301.691V245.945H90.9883L54.1016 302.527ZM461.555 495.309C461.555 496.875 459.574 497.457 458.719 496.145L421.832 439.562H461.555V495.309Z" fill="url(#paint0_linear)"></path> <path d="M398.004 247.246L362.453 282.797L326.898 247.246C317.582 237.906 302.438 237.891 293.102 247.246C283.789 256.559 283.789 271.719 293.102 281.031L328.656 316.594L293.102 352.148C283.789 361.461 283.789 376.621 293.102 385.945C302.434 395.273 317.566 395.281 326.898 385.945L362.453 350.391L398.004 385.945C402.527 390.457 408.52 392.938 414.91 392.938C436.004 392.938 446.926 367.238 431.801 352.148L396.25 316.594L431.801 281.043C441.188 271.656 441.113 256.535 431.801 247.246C422.523 237.945 407.398 237.852 398.004 247.246V247.246ZM421.105 270.336L380.195 311.238C377.238 314.195 377.238 318.988 380.195 321.945L421.105 362.844C422.762 364.5 423.668 366.699 423.668 369.043C423.668 376.879 414.172 380.699 408.711 375.238L367.812 334.336C364.875 331.398 360.086 331.356 357.105 334.336L316.191 375.238C312.805 378.648 307.242 378.672 303.809 375.238C300.391 371.828 300.391 366.266 303.809 362.844L344.711 321.945C347.699 318.957 347.645 314.168 344.711 311.238L303.809 270.336C298.289 264.816 302.242 255.379 310.008 255.379C312.336 255.379 314.547 256.289 316.191 257.941L357.105 298.856C360.07 301.797 364.844 301.801 367.812 298.856L408.711 257.941C412.113 254.543 417.664 254.5 421.105 257.941C424.527 261.367 424.523 266.918 421.105 270.336V270.336Z" fill="url(#paint1_linear)"></path> <path d="M150.367 69.6836C120.98 69.6836 97.0781 93.5898 97.0781 122.973C97.0781 152.359 120.98 176.262 150.367 176.262C179.75 176.262 203.656 152.359 203.656 122.973C203.656 93.5898 179.75 69.6836 150.367 69.6836ZM150.367 161.125C129.328 161.125 112.215 144.012 112.215 122.977C112.215 101.938 129.328 84.8242 150.367 84.8242C171.402 84.8242 188.516 101.938 188.516 122.977C188.516 144.012 171.402 161.125 150.367 161.125Z" fill="url(#paint2_linear)"></path> <path d="M228.262 134.52C232.437 134.723 235.992 131.516 236.203 127.34C236.277 125.895 236.312 124.43 236.312 122.973C236.312 75.582 197.758 37.0273 150.367 37.0273C102.977 37.0273 64.418 75.582 64.418 122.973C64.418 170.363 102.977 208.922 150.367 208.922C183.543 208.922 214.105 189.465 228.227 159.359C230 155.574 228.371 151.066 224.586 149.293C220.805 147.516 216.297 149.145 214.52 152.93C202.883 177.746 177.699 193.781 150.367 193.781C111.32 193.781 79.5547 162.016 79.5547 122.973C79.5547 83.9297 111.32 52.1641 150.367 52.1641C189.41 52.1641 221.176 83.9297 221.176 122.973C221.176 124.172 221.145 125.387 221.086 126.578C220.875 130.754 224.09 134.309 228.262 134.52Z" fill="url(#paint3_linear)"></path> <defs> <linearGradient id="paint0_linear" x1="511.82" y1="0" x2="-99.6886" y2="193.039" gradientUnits="userSpaceOnUse"> <stop stop-color="#18C800"></stop> <stop offset="1" stop-color="#90EC00"></stop> </linearGradient> <linearGradient id="paint1_linear" x1="438.84" y1="240.235" x2="256.093" y2="298.062" gradientUnits="userSpaceOnUse"> <stop stop-color="#18C800"></stop> <stop offset="1" stop-color="#90EC00"></stop> </linearGradient> <linearGradient id="paint2_linear" x1="203.656" y1="69.6836" x2="76.1238" y2="110.036" gradientUnits="userSpaceOnUse"> <stop stop-color="#18C800"></stop> <stop offset="1" stop-color="#90EC00"></stop> </linearGradient> <linearGradient id="paint3_linear" x1="236.312" y1="37.0273" x2="30.6218" y2="102.109" gradientUnits="userSpaceOnUse"> <stop stop-color="#18C800"></stop> <stop offset="1" stop-color="#90EC00"></stop> </linearGradient> </defs> </svg> 