<?xml version="1.0" encoding="UTF-8"?> <svg xmlns="http://www.w3.org/2000/svg" width="511" height="511" viewBox="0 0 511 511" fill="none"> <g clip-path="url(#clip0)"> <path d="M508.918 217.933L423.39 106.83C420.225 102.721 414.451 101.707 410.073 104.491L354.853 139.61H282.833C281.902 139.61 280.974 139.808 280.077 140.07L224.237 156.144L166.296 140.296L109.996 104.491C105.692 101.754 100.023 102.682 96.8223 106.651L2.22221 223.828C-1.17739 228.038 -0.615988 234.186 3.48536 237.715L53.068 280.385L97.5513 340.33C84.5416 354.19 84.795 376.049 98.331 389.589C104.331 395.585 111.961 398.973 119.809 399.761C119.536 401.539 119.395 403.344 119.395 405.176C119.395 414.634 123.079 423.527 129.766 430.213C136.456 436.903 145.348 440.587 154.806 440.587C154.935 440.587 155.06 440.579 155.185 440.575C155.181 440.817 155.169 441.055 155.169 441.297C155.169 450.755 158.853 459.647 165.539 466.338C172.229 473.024 181.122 476.708 190.58 476.708C192.448 476.708 194.296 476.556 196.108 476.275C196.876 484.15 200.272 491.815 206.292 497.835C213.192 504.739 222.26 508.189 231.329 508.189C240.397 508.189 249.465 504.739 256.369 497.835L261.785 492.419L264.058 494.252C270.904 500.883 279.792 504.197 288.681 504.197C297.749 504.197 306.818 500.747 313.718 493.842C320.763 486.798 324.213 477.499 324.069 468.248C333.317 468.388 342.619 464.942 349.663 457.901C356.7 450.86 360.151 441.57 360.014 432.322C369.648 432.474 378.786 428.774 385.605 421.956C392.65 414.911 396.1 405.613 395.956 396.361C405.211 396.502 414.505 393.055 421.55 386.01C433.573 373.987 435.121 355.402 426.205 341.683L458.684 273.66L507.515 231.641C511.55 228.167 512.166 222.147 508.918 217.933V217.933ZM106.791 126.202L147.274 151.945L59.2084 259.235L23.918 228.861L106.791 126.202ZM112.503 353.679L124.721 341.461C125.091 341.09 125.481 340.74 125.879 340.412C128.269 338.463 131.161 337.301 134.226 337.024C134.311 337.016 134.401 337.016 134.487 337.012C134.923 336.977 135.36 336.954 135.801 336.958C139.988 337.016 143.879 338.728 146.764 341.773C152.424 347.757 152.12 357.535 146.085 363.57L134.237 375.418C128.245 381.41 118.495 381.41 112.503 375.418C106.51 369.422 106.51 359.671 112.503 353.679ZM143.937 416.041C141.033 413.141 139.434 409.281 139.434 405.176C139.434 401.071 141.033 397.211 143.937 394.307L167.629 370.615C172.167 366.077 179.301 364.833 185.103 367.597C191.083 370.447 194.448 376.938 193.57 383.468C193.103 386.954 191.481 390.236 188.993 392.728L165.676 416.041C162.771 418.946 158.912 420.544 154.806 420.544C150.701 420.544 146.842 418.946 143.937 416.041ZM179.711 452.162C176.806 449.262 175.208 445.402 175.208 441.297C175.208 437.191 176.806 433.332 179.711 430.427L203.399 406.735C208.253 401.886 216.038 400.841 221.98 404.299C227.407 407.457 230.249 413.655 229.317 419.831C228.806 423.227 227.192 426.42 224.763 428.848L201.45 452.162C198.545 455.067 194.685 456.665 190.58 456.665C186.475 456.665 182.615 455.067 179.711 452.162ZM220.459 483.663C214.467 477.671 214.467 467.92 220.459 461.928L232.678 449.71C233.048 449.34 233.434 448.993 233.832 448.665C233.843 448.657 233.851 448.649 233.859 448.642C235.847 447.028 238.182 445.948 240.674 445.476C240.732 445.468 240.791 445.46 240.849 445.453C241.278 445.375 241.715 445.312 242.151 445.273C242.327 445.258 242.502 445.258 242.681 445.246C243.04 445.227 243.395 445.203 243.757 445.207C247.941 445.265 251.835 446.973 254.72 450.022C255.075 450.396 255.406 450.786 255.711 451.188C260.319 457.211 259.699 466.158 253.98 471.881L242.194 483.667C236.202 489.659 226.451 489.655 220.459 483.663V483.663ZM407.379 371.839C401.386 377.835 391.636 377.831 385.644 371.839C385.426 371.621 385.195 371.418 384.962 371.227L320.533 306.12C316.638 302.186 310.295 302.155 306.361 306.05C302.428 309.94 302.397 316.283 306.287 320.217L371.414 386.022C371.422 386.03 371.429 386.038 371.437 386.045C377.429 392.038 377.429 401.792 371.437 407.784C368.533 410.689 364.673 412.287 360.568 412.287C356.459 412.287 352.599 410.689 349.699 407.784L306.131 363.765C302.241 359.831 295.898 359.8 291.964 363.691C288.03 367.585 287.999 373.929 291.89 377.862L334.79 421.207C335.009 421.48 335.242 421.741 335.492 421.991C341.484 427.983 341.484 437.737 335.492 443.729C329.496 449.722 319.742 449.718 313.749 443.726L289.972 419.698C286.077 415.765 279.734 415.73 275.8 419.624C271.866 423.515 271.835 429.858 275.726 433.792L298.841 457.145C299.059 457.417 299.293 457.683 299.547 457.932C305.539 463.924 305.539 473.679 299.547 479.671C293.554 485.667 283.804 485.663 277.812 479.671C277.122 478.981 276.311 478.451 275.539 477.858C274.884 477.359 274.712 477.012 275.04 476.217C275.371 475.41 275.866 474.681 276.198 473.87C276.564 472.965 276.861 472.033 277.149 471.098C278.685 466.146 279.137 460.821 278.447 455.683C277.122 445.823 271.699 436.926 263.481 431.297C259.04 428.26 253.902 426.267 248.576 425.519C251.157 414.135 248.058 401.792 239.995 393.273C233.36 386.264 224.397 382.33 214.756 382.197C214.405 382.194 214.054 382.194 213.699 382.197C213.913 372.997 210.568 363.854 204.225 357.153C197.586 350.143 188.623 346.209 178.986 346.077C176.12 346.038 173.227 346.342 170.436 346.985C169.243 338.685 165.06 331.005 158.725 325.512C152.428 320.061 144.51 317.036 136.077 316.919C127.2 316.79 118.479 320.065 111.887 326.018L73.1537 273.827L165.816 160.939L195.348 169.017L156.779 237.075C152.116 245.305 150.939 254.857 153.461 263.972C155.984 273.091 161.902 280.677 170.132 285.34C170.647 285.633 171.165 285.909 171.691 286.174C171.73 286.194 171.769 286.213 171.812 286.233C173.196 286.923 174.619 287.516 176.062 288.015C182.779 290.342 190.034 290.595 197.032 288.662C206.147 286.139 213.734 280.217 218.397 271.991L243.461 227.761L288.213 230.935L407.383 350.1C413.371 356.096 413.371 365.847 407.379 371.839V371.839ZM411.531 325.909L299.738 214.12C299.527 213.906 299.305 213.703 299.075 213.512C297.465 212.171 295.469 211.36 293.363 211.212L238.568 207.325C234.779 207.064 231.013 209.079 229.141 212.381L200.962 262.112C198.939 265.683 195.645 268.252 191.687 269.348C187.734 270.443 183.586 269.929 180.011 267.905C176.44 265.882 173.871 262.588 172.775 258.631C171.68 254.674 172.19 250.525 174.218 246.954L211.835 180.565L227.079 176.179C227.18 176.148 227.278 176.109 227.379 176.077L284.272 159.649H353.012L438.829 268.74L411.531 325.909ZM451.955 253.013L372.595 152.074L413.098 126.315L487.254 222.639L451.955 253.013Z" fill="url(#paint0_linear)"></path> <path d="M309.578 120.795C312.143 120.795 314.708 119.816 316.665 117.859L385.11 49.415C389.024 45.5008 389.024 39.1577 385.11 35.2435C381.195 31.3293 374.852 31.3293 370.938 35.2435L302.494 103.688C298.58 107.602 298.58 113.945 302.494 117.859C304.451 119.816 307.016 120.795 309.578 120.795Z" fill="url(#paint1_linear)"></path> <path d="M194.335 117.859C196.292 119.816 198.857 120.795 201.422 120.795C203.984 120.795 206.549 119.816 208.506 117.859C212.42 113.945 212.42 107.602 208.506 103.688L140.062 35.2435C136.148 31.3293 129.805 31.3293 125.89 35.2435C121.976 39.1577 121.976 45.5008 125.89 49.415L194.335 117.859Z" fill="url(#paint2_linear)"></path> <path d="M255.5 120.795C261.032 120.795 265.519 116.307 265.519 110.775V54.1322C265.519 48.6001 261.032 44.1128 255.5 44.1128C249.968 44.1128 245.481 48.6001 245.481 54.1322V110.775C245.481 116.307 249.968 120.795 255.5 120.795Z" fill="url(#paint3_linear)"></path> <path d="M246.253 17.8166C247.843 21.6723 251.808 24.2026 255.991 23.9842C260.124 23.7698 263.753 20.9784 265.032 17.0447C266.315 13.0798 264.919 8.56128 261.597 6.03498C258.21 3.45409 253.484 3.30984 249.941 5.65291C245.987 8.26499 244.455 13.4658 246.253 17.8166Z" fill="url(#paint4_linear)"></path> </g> <defs> <linearGradient id="paint0_linear" x1="511" y1="102.924" x2="-69.3169" y2="334.446" gradientUnits="userSpaceOnUse"> <stop stop-color="#18C800"></stop> <stop offset="1" stop-color="#90EC00"></stop> </linearGradient> <linearGradient id="paint1_linear" x1="388.045" y1="32.3079" x2="282.161" y2="65.8104" gradientUnits="userSpaceOnUse"> <stop stop-color="#18C800"></stop> <stop offset="1" stop-color="#90EC00"></stop> </linearGradient> <linearGradient id="paint2_linear" x1="211.442" y1="32.3079" x2="105.557" y2="65.8104" gradientUnits="userSpaceOnUse"> <stop stop-color="#18C800"></stop> <stop offset="1" stop-color="#90EC00"></stop> </linearGradient> <linearGradient id="paint3_linear" x1="265.519" y1="44.1128" x2="239.319" y2="46.2792" gradientUnits="userSpaceOnUse"> <stop stop-color="#18C800"></stop> <stop offset="1" stop-color="#90EC00"></stop> </linearGradient> <linearGradient id="paint4_linear" x1="265.504" y1="3.99219" x2="241.573" y2="11.5614" gradientUnits="userSpaceOnUse"> <stop stop-color="#18C800"></stop> <stop offset="1" stop-color="#90EC00"></stop> </linearGradient> <clipPath id="clip0"> <rect width="511" height="511" fill="white"></rect> </clipPath> </defs> </svg> 